# xmcd CD database file
#
# Track frame offsets:
#	150
#	34011
#	67583
#	98047
#	118685
#	134423
#	146660
#	181916
#	207586
#
# Disc length: 3305 seconds
#
# Revision: 0
# Processed by: cddbd v1.5.2PL0 Copyright (c) Steve Scherf et al.
# Submitted via: CDex 1.51
#
DISCID=7d0ce709
DTITLE=Columbus State University Wind Ensemble - Electric Dawn
DYEAR=2005
DGENRE=Wind Band
TTITLE0=Serge Prokofiev - Overture Op. 42
TTITLE1=Bohuslav Martinu - Memorial to Lidice
TTITLE2=Alexander Arutiunian - Rhapsody for Trumpet
TTITLE3=Samuel R. Hazo - Perthshire Majesty
TTITLE4=Peter Graham - Pentium
TTITLE5=Christopher Theofanidis - Etenraku
TTITLE6=Arr. Rumbelow - Amazing Grace
TTITLE7=J. M. David - Sinfonietta No. 1 I. Agitated
TTITLE8=J. M. David - Sinfonietta No. 1 II. Resolute
EXTD=YEAR: 2005
EXTT0=
EXTT1=
EXTT2=
EXTT3=
EXTT4=
EXTT5=
EXTT6=
EXTT7=
EXTT8=
PLAYORDER=
